<?xml version="1.0" encoding="UTF-8" standalone="no"?>
<!-- Created with Inkscape (http://www.inkscape.org/) -->
<svg
   xmlns:dc="http://purl.org/dc/elements/1.1/"
   xmlns:cc="http://creativecommons.org/ns#"
   xmlns:rdf="http://www.w3.org/1999/02/22-rdf-syntax-ns#"
   xmlns:svg="http://www.w3.org/2000/svg"
   xmlns="http://www.w3.org/2000/svg"
   xmlns:sodipodi="http://sodipodi.sourceforge.net/DTD/sodipodi-0.dtd"
   xmlns:inkscape="http://www.inkscape.org/namespaces/inkscape"
   id="svg2440"
   sodipodi:version="0.32"
   inkscape:version="0.46"
   width="439"
   height="424"
   version="1.0"
   sodipodi:docname="toasterbot.svg"
   inkscape:output_extension="org.inkscape.output.svg.inkscape">
  <metadata
     id="metadata2445">
    <rdf:RDF>
      <cc:Work
         rdf:about="">
        <dc:format>image/svg+xml</dc:format>
        <dc:type
           rdf:resource="http://purl.org/dc/dcmitype/StillImage" />
      </cc:Work>
    </rdf:RDF>
  </metadata>
  <defs
     id="defs2443">
    <inkscape:perspective
       sodipodi:type="inkscape:persp3d"
       inkscape:vp_x="0 : 526.18109 : 1"
       inkscape:vp_y="0 : 1000 : 0"
       inkscape:vp_z="744.09448 : 526.18109 : 1"
       inkscape:persp3d-origin="372.04724 : 350.78739 : 1"
       id="perspective2447" />
  </defs>
  <sodipodi:namedview
     inkscape:window-height="701"
     inkscape:window-width="640"
     inkscape:pageshadow="2"
     inkscape:pageopacity="1"
     guidetolerance="10.0"
     gridtolerance="10.0"
     objecttolerance="10.0"
     borderopacity="1.0"
     bordercolor="#666666"
     pagecolor="#000000"
     id="base"
     showgrid="false"
     inkscape:zoom="1.1745283"
     inkscape:cx="219.5"
     inkscape:cy="212"
     inkscape:window-x="537"
     inkscape:window-y="161"
     inkscape:current-layer="svg2440" />
  <path
     style="fill:#000000"
     d="M 183.34111,405.69248 C 183.59709,404.91734 184.8188,403.77403 186.05602,403.1518 C 188.78268,401.78049 196.36196,391.92323 195.85624,390.40608 C 195.65745,389.80972 193.88167,388.94029 191.91005,388.47402 C 189.93844,388.00774 186.52175,386.08247 184.31742,384.19564 C 180.74418,381.13709 180.14588,380.9287 178.80049,382.27409 C 177.97052,383.10406 176.8644,383.78313 176.34246,383.78313 C 174.48967,383.78313 172.8589,386.88914 172.63581,390.84292 C 172.38823,395.23079 174.6363,397.78313 178.74865,397.78313 C 181.22857,397.78313 183.62725,400.19963 182.67566,401.73933 C 182.32085,402.31342 180.23666,402.78313 178.04412,402.78313 C 173.33435,402.78313 169.44885,399.53442 168.50312,394.80579 L 167.89743,391.77732 L 163.77301,395.46916 C 161.50458,397.49968 159.26552,400.22521 158.79732,401.52589 C 157.74061,404.46147 154.77337,404.13686 154.33092,401.03727 C 154.09088,399.35569 156.71793,395.99004 165.08092,387.26489 C 171.16814,380.91406 176.17914,375.1701 176.21649,374.50053 C 176.76134,364.73123 176.78156,364.81565 173.64859,363.77634 C 171.99859,363.22898 166.90459,360.8286 162.32859,358.44217 C 155.85686,355.06709 153.35865,353.12352 151.08287,349.69316 C 147.75431,344.67591 147.52379,342.89203 149.66818,338.74525 C 151.46429,335.27196 151.06617,325.47212 148.5447,311.09021 L 146.93298,301.8973 L 141.79078,303.91426 C 138.96258,305.02359 134.67889,306.7979 132.27147,307.85717 C 129.86406,308.91645 126.56403,309.78313 124.93808,309.78313 C 123.31214,309.78313 118.40409,310.69661 114.0313,311.81308 C 104.79545,314.1712 99.78265,313.85247 87.713165,310.13967 C 74.106137,305.9539 54.185669,292.16783 50.193792,284.17418 C 49.399739,282.5841 47.686108,279.81313 46.385724,278.01647 C 43.553693,274.10361 40.506226,267.41641 39.671502,263.28313 C 38.072664,255.36621 37.988153,254.00032 39.056307,253.34017 C 39.797933,252.88182 39.003708,251.26352 36.738143,248.61671 C 34.619668,246.14175 33.023503,243.0022 32.595381,240.46816 C 32.163494,237.91185 30.481229,234.62445 28.167011,231.81449 C 26.114462,229.32224 24.176969,226.54047 23.861472,225.63278 C 23.23493,223.8302 29.853156,216.52761 38.757832,209.19605 C 41.567912,206.8824 45.743657,203.09398 48.037264,200.77734 C 51.165619,197.61756 52.744426,196.70568 54.356794,197.12732 C 55.84143,197.51557 57.209222,196.93074 58.779613,195.23626 C 61.393114,192.41625 65.503152,192.06629 71.497755,194.15336 C 74.473995,195.18956 75.959824,196.60353 78.049542,200.3883 C 80.4578,204.74999 84.889014,211.69856 87.632158,215.41477 C 88.358033,216.39814 87.24455,218.13565 83.382158,222.04663 C 80.503698,224.96129 78.148594,227.84293 78.148594,228.45027 C 78.148594,229.0576 77.476366,230.84345 76.654755,232.41882 C 74.920071,235.74493 74.727752,237.78313 76.148594,237.78313 C 77.376108,237.78313 77.483494,241.45812 76.277756,242.2033 C 75.798795,242.49932 75.124525,244.15347 74.779378,245.87921 C 74.243776,248.55722 73.792684,248.94825 71.700317,248.54827 C 70.229191,248.26704 69.047329,248.60464 68.745022,249.39244 C 68.143573,250.95979 72.279153,263.5027 74.810007,267.78709 C 76.879548,271.29055 82.589364,275.32172 88.371976,277.36194 C 94.797879,279.62913 109.16779,279.19643 119.15562,276.43499 C 131.00379,273.1592 142.14859,267.42239 142.14859,264.5993 C 142.14859,263.41202 142.82268,261.69575 143.64657,260.78536 C 145.01191,259.27668 144.8919,259.16719 142.29132,259.54887 C 139.53053,259.95407 139.38479,259.75549 137.79334,253.41987 C 136.01152,246.3264 135.60666,234.81048 137.04099,232.01956 C 137.53181,231.06452 138.4165,229.05804 139.00698,227.56072 C 139.70004,225.80326 141.06736,224.62989 142.86458,224.25031 C 144.39579,223.92692 146.42998,223.23951 147.38502,222.72273 C 148.34006,222.20595 149.80256,221.78313 150.63502,221.78313 C 154.2379,221.78313 151.60787,220.10916 144.89859,218.13198 C 140.91109,216.95689 132.92359,214.59192 127.14859,212.87648 C 121.37359,211.16104 111.26809,208.35272 104.69192,206.63576 C 90.016166,202.80411 81.738931,199.09897 77.148594,194.30654 C 75.223594,192.29679 72.534098,189.52322 71.171936,188.14306 L 68.695278,185.63367 L 70.844985,183.9584 C 72.408128,182.74024 73.148879,180.78241 73.559773,176.78313 C 74.153056,171.00863 75.584515,111.17762 75.294337,104.28313 C 74.984804,96.928752 77.113157,82.031612 79.15344,77.271832 C 81.70856,71.310972 88.049917,64.067232 93.347119,61.058372 C 95.599784,59.778832 98.92209,57.433162 100.73002,55.845772 C 102.53796,54.258392 105.05925,52.629162 106.33288,52.225282 C 107.60652,51.821402 110.30958,50.442782 112.33969,49.161682 C 114.36979,47.880582 117.29479,46.612712 118.83969,46.344202 C 120.38458,46.075682 125.92359,45.123162 131.14859,44.227482 C 136.37359,43.331812 141.09859,42.265942 141.64859,41.858892 C 142.19859,41.451852 145.34859,40.507152 148.64859,39.759572 C 154.08947,38.526992 159.16844,36.817262 174.89005,30.925932 C 177.77285,29.845672 182.04785,28.640792 184.39005,28.248422 C 189.35961,27.415922 203.34104,22.512142 207.57671,20.116052 C 209.87812,18.814152 213.8377,18.395412 226.07671,18.159592 C 234.64124,17.994582 243.56413,17.589342 245.90534,17.259062 C 248.24656,16.928792 251.62156,17.118252 253.40534,17.680102 C 255.18913,18.241952 262.27359,19.429232 269.14859,20.318512 C 276.02359,21.207782 282.54859,22.507892 283.64859,23.207632 C 284.74859,23.907372 287.44859,25.065162 289.64859,25.780502 C 296.7403,28.086422 307.54645,33.738902 311.38427,37.150002 C 315.67339,40.962232 317.58856,45.011252 319.60717,54.534732 C 320.39389,58.246352 321.65792,63.083132 322.41613,65.283132 C 323.17434,67.483132 323.89097,71.533132 324.00865,74.283132 C 324.12632,77.033132 324.71426,81.758132 325.31516,84.783132 C 326.58808,91.191072 325.81133,120.65401 323.64107,148.28313 C 322.86343,158.18313 322.3844,167.91356 322.57657,169.9063 C 322.83633,172.59986 322.31406,174.2676 320.54105,176.4063 L 318.15613,179.28313 L 316.36259,177.18197 L 314.56905,175.08081 L 301.60882,178.86344 C 294.48069,180.94389 280.54859,184.94426 270.64859,187.75316 C 260.74859,190.56205 242.97359,195.97515 231.14859,199.78227 C 219.32359,203.58939 207.84859,207.00525 205.64859,207.37308 C 200.11042,208.29904 194.88595,208.57941 193.39859,208.03048 C 192.06253,207.53739 191.64352,203.86997 192.89859,203.65418 C 193.31109,203.58326 194.77359,203.39758 196.14859,203.24157 C 205.58691,202.17064 223.29611,198.22368 229.64859,195.77521 C 234.159,194.03674 252.94368,188.4552 268.14859,184.33561 C 275.57359,182.32389 283.89859,179.867 286.64859,178.87583 C 289.39859,177.88467 295.44805,175.84992 300.09184,174.35417 C 315.03823,169.53998 316.40032,168.16028 315.68262,158.56177 C 315.46554,155.65852 315.75055,151.25813 316.31597,148.78313 C 317.23564,144.75752 317.88429,135.8858 319.81054,100.98713 C 320.21039,93.742862 319.91144,88.111262 318.80195,81.987132 C 317.93466,77.199932 317.01112,71.933132 316.74964,70.283132 C 315.322,61.274322 310.50135,45.924632 308.32876,43.469752 C 305.62147,40.410702 291.1398,33.065722 281.64859,29.937802 C 275.03854,27.759392 268.98405,26.650132 258.84877,25.760592 C 251.25887,25.094452 244.76387,24.834512 244.41544,25.182952 C 244.06701,25.531382 244.31442,26.348962 244.96526,26.999802 C 245.61609,27.650632 246.14859,29.163542 246.14859,30.361812 C 246.14859,32.648302 244.69135,33.439162 236.14859,35.788962 C 233.67359,36.469742 227.59859,38.264172 222.64859,39.776572 C 217.69859,41.288972 210.04859,43.566222 205.64859,44.837122 C 201.24859,46.108032 192.24717,49.268542 185.64543,51.860482 C 179.0437,54.452422 171.7312,57.087712 169.39543,57.716662 C 167.05967,58.345622 165.14859,59.292872 165.14859,59.821672 C 165.14859,60.350482 164.33669,60.783132 163.34437,60.783132 C 162.35205,60.783132 159.36795,62.160702 156.71304,63.844402 L 151.88592,66.905662 L 149.26726,64.434002 C 147.82699,63.074592 144.73609,60.976582 142.39859,59.771772 C 140.06109,58.566952 138.14859,56.938192 138.14859,56.152292 C 138.14859,55.349732 141.21375,53.345232 145.14131,51.579312 C 148.98731,49.850072 151.94974,48.250952 151.7245,48.025712 C 151.49926,47.800462 148.01503,48.504182 143.98178,49.589532 C 139.94852,50.674882 133.94973,51.883742 130.65111,52.275892 C 127.3525,52.668032 122.8525,54.016852 120.65111,55.273242 C 118.44973,56.529642 114.23769,58.335592 111.29104,59.286462 C 108.34438,60.237332 105.00073,62.088072 103.8607,63.399222 C 102.72067,64.710372 101.03659,65.783132 100.11829,65.783132 C 97.04024,65.783132 90.680756,71.444162 87.1792,77.301142 L 83.709806,83.104332 L 83.072357,99.193732 C 82.72176,108.0429 82.541694,126.69788 82.672212,140.64924 C 82.858718,160.58544 82.615331,166.57915 81.535216,168.64924 C 79.837797,171.9024 79.708486,182.94302 81.348594,184.58313 C 82.008594,185.24313 83.493594,185.78313 84.648594,185.78313 C 85.803594,185.78313 87.176094,186.16679 87.698594,186.6357 C 88.645717,187.4857 90.058839,187.87759 106.14859,191.75232 C 110.82359,192.87815 117.79859,194.69746 121.64859,195.79523 C 137.87208,200.42113 175.936,207.92596 183.64859,208.0194 C 187.26517,208.06321 189.22629,209.41707 188.48216,211.35624 C 187.85282,212.99627 181.79119,213.23273 175.83251,211.84968 C 172.89889,211.16877 171.89469,211.28121 171.48995,212.33594 C 171.04828,213.48691 170.6159,213.49236 168.80603,212.36981 C 166.25549,210.78787 158.15898,208.62026 116.32112,198.31851 C 99.09102,194.07593 84.732502,190.86589 84.413306,191.18508 C 83.380464,192.21793 96.34412,197.37021 108.14859,200.61844 C 137.40436,208.66875 148.80084,211.90542 150.64859,212.68873 C 154.00358,214.11099 165.19934,215.94943 173.73538,216.47978 C 181.06101,216.93493 182.31692,216.73152 187.07836,214.31872 C 192.51216,211.5652 200.2671,210.63866 200.94166,212.66235 C 201.47359,214.25812 204.04097,214.05563 210.24204,211.92883 C 213.21564,210.90897 217.89859,209.74228 220.64859,209.3362 C 226.90304,208.41261 239.4935,204.95025 253.14859,200.39873 C 258.92359,198.4738 269.72359,195.49386 277.14859,193.77662 C 284.57359,192.05939 292.44859,189.97141 294.64859,189.13666 C 298.59664,187.63864 299.80694,187.13917 309.64859,182.94642 C 321.91609,177.7202 327.0509,176.75557 329.14859,179.28313 C 330.79001,181.26092 328.82963,183.78313 325.65099,183.78313 C 324.412,183.78313 319.99581,185.33368 315.83724,187.2288 C 311.67867,189.12393 303.18499,192.2168 296.9624,194.10187 C 285.95445,197.4366 282.5436,198.31959 261.64859,203.2438 C 256.14859,204.53995 249.39859,206.58475 246.64859,207.7878 L 241.64859,209.97516 L 245.14859,211.16241 C 247.64838,212.01037 249.47225,212.05438 251.53082,211.31639 C 254.12024,210.3881 254.62819,210.57615 256.53082,213.16753 C 257.69559,214.75396 261.19699,218.53155 264.3117,221.56218 C 267.56163,224.72438 269.75318,227.64997 269.45471,228.42777 C 268.76728,230.21919 270.74692,230.13933 276.61817,228.13879 C 282.44933,226.15192 299.3356,226.80739 308.14859,229.3627 C 328.03309,235.12817 332.20766,236.0548 338.67041,236.13761 C 345.76677,236.22853 346.89869,235.8707 356.64859,230.45426 C 360.04794,228.56579 360.61595,227.78545 360.4312,225.25762 C 360.31163,223.62165 360.14288,221.23045 360.0562,219.94384 C 359.7747,215.76578 361.83696,215.03573 376.14859,214.24702 C 383.57359,213.83783 391.44859,213.58402 393.64859,213.68299 C 398.27995,213.89135 409.33546,219.25145 411.16012,222.17319 C 412.22633,223.88048 412.07084,224.42767 410.05578,226.05936 C 407.95191,227.76298 407.88237,228.05464 409.38018,228.89286 C 414.36372,231.68179 415.33672,234.80599 412.07416,237.54292 C 410.93322,238.50003 407.81919,242.26429 405.15409,245.90792 C 400.37003,252.44852 400.23555,252.54182 394.57175,253.24946 C 386.92207,254.20523 386.14859,254.5868 386.14859,257.40482 C 386.14859,261.12993 380.80461,264.03823 375.24948,263.33634 C 372.82997,263.03064 370.24476,262.27791 369.50458,261.66361 C 368.4924,260.82358 366.85607,261.07127 362.90369,262.66277 C 353.32671,266.51912 335.17864,265.08705 322.06898,259.44048 C 320.1002,258.59249 317.9217,257.21467 317.22788,256.37867 C 316.53405,255.54266 313.5155,253.94166 310.51997,252.82089 C 302.38256,249.7763 290.02844,250.00197 279.6134,253.38546 C 267.38422,257.3583 267.98106,256.36215 269.12383,270.89307 C 270.71969,291.18527 270.52291,320.74214 268.78035,322.4847 C 268.43288,322.83217 268.14859,325.77105 268.14859,329.01554 C 268.14859,332.26003 267.66272,335.82246 267.06889,336.93206 C 266.23431,338.49147 266.34783,339.34581 267.56889,340.69506 C 269.37331,342.68893 269.63471,345.36466 268.11671,346.30283 C 267.54918,346.65359 266.13431,348.96272 264.97255,351.43424 C 263.8108,353.90576 261.39483,357.09723 259.60372,358.52638 C 256.68531,360.85504 256.45954,361.39266 257.42944,363.70399 C 259.47014,368.5671 261.76985,370.19649 266.22214,369.93379 C 269.2422,369.75559 270.22362,370.03747 269.88842,370.98679 C 269.3325,372.56121 262.51832,372.33487 260.51899,370.67557 C 258.71296,369.1767 258.67732,369.00972 262.25124,378.79135 C 266.8855,391.4751 267.72012,395.38955 266.18467,397.23965 C 264.41895,399.36722 258.14859,399.31767 258.14859,397.17614 C 258.14859,396.24342 258.71112,395.78502 259.48927,396.08362 C 262.18932,397.11973 263.25028,395.3733 262.03633,391.89096 L 260.90012,388.63162 L 257.48805,391.93873 C 254.34075,394.98921 253.5696,395.24728 247.55009,395.26448 C 241.68146,395.28125 241.23189,395.42131 243.08639,396.6551 C 246.02936,398.61305 245.62859,404.78313 242.55845,404.78313 C 240.84652,404.78313 237.93712,398.90146 231.58799,382.6052 L 226.64859,369.92727 L 218.40701,369.9052 C 208.87298,369.87967 209.6809,369.12192 205.20201,382.29024 C 200.56011,395.93783 195.03477,403.72958 188.99149,405.15005 C 187.53009,405.49355 185.55618,406.07323 184.60504,406.43821 C 183.38783,406.9053 183.01352,406.68446 183.34111,405.69248 z M 255.34358,388.79024 C 258.73471,387.18211 259.26946,385.78106 258.08499,381.60773 C 256.26575,375.19781 256.20816,375.17727 246.98117,377.64685 C 242.40282,378.87223 238.26048,380.27124 237.77596,380.75576 C 237.29145,381.24027 237.22864,382.90715 237.63639,384.45991 C 238.31405,387.04055 238.44779,387.11128 239.19289,385.28313 C 239.89342,383.5643 240.0179,383.53106 240.0783,385.0467 C 240.24003,389.10476 242.21038,390.48392 247.54289,390.27157 C 250.35102,390.15975 253.86133,389.49315 255.34358,388.79024 z M 199.49622,382.03313 C 200.26567,380.52063 201.24214,378.16166 201.66615,376.79097 C 202.36444,374.53365 202.27774,374.43105 200.74616,375.70216 C 197.93176,378.0379 194.98252,382.70541 195.64437,383.77631 C 196.70808,385.49741 198.04065,384.89435 199.49622,382.03313 z M 193.07735,378.78313 C 194.3907,378.78313 203.27972,370.58093 202.64943,369.95064 C 202.32711,369.62832 200.39506,369.47458 198.35599,369.609 C 196.31692,369.74341 191.99705,369.15162 188.75628,368.2939 C 185.51551,367.43618 182.76289,366.85787 182.63934,367.00877 C 182.51579,367.15967 182.1851,369.42063 181.90448,372.03313 C 181.48245,375.96212 181.67551,376.78354 183.02143,376.78548 C 183.91637,376.78677 186.22359,378.13956 188.14859,379.79169 C 191.40701,382.58822 191.67065,382.65708 191.96814,380.78934 C 192.14389,379.68593 192.64304,378.78313 193.07735,378.78313 z M 247.64859,372.93343 C 252.50507,372.3018 252.65608,372.18267 252.90958,368.78313 C 253.33911,363.02296 252.29177,362.39211 246.06075,364.6578 C 243.08406,365.74016 238.73609,366.9257 236.39859,367.29233 C 231.67381,368.03339 231.52532,368.35568 233.60992,373.34483 L 235.07125,376.84228 L 238.85992,375.21301 C 240.94369,374.31691 244.89859,373.2911 247.64859,372.93343 z M 200.63547,364.4391 C 201.76085,363.31373 201.12485,362.82567 196.72615,361.4391 C 193.83681,360.52832 190.30452,359.78313 188.87661,359.78313 C 183.45879,359.78313 169.51886,352.70686 161.00981,345.63721 C 158.45848,343.51747 156.09598,341.78313 155.75981,341.78313 C 154.5122,341.78313 155.25001,345.35292 156.92083,347.40053 C 159.18275,350.17255 169.99091,356.36995 174.16046,357.28574 C 178.83314,358.31203 197.04606,364.34726 197.8269,365.12811 C 198.74992,366.05112 199.11237,365.96221 200.63547,364.4391 z M 227.14859,362.78313 C 228.95661,362.2041 227.84945,361.97435 223.14859,361.9531 C 219.57359,361.93693 215.74859,362.31044 214.64859,362.78313 C 212.025,363.91052 223.6283,363.91052 227.14859,362.78313 z M 237.64859,360.78313 C 238.38643,359.58929 236.42681,359.58929 233.64859,360.78313 C 231.86276,361.55053 231.93675,361.65009 234.33957,361.71284 C 235.81961,361.7515 237.30867,361.33313 237.64859,360.78313 z M 225.80761,355.24055 C 234.21961,354.98905 243.89758,352.23356 244.54877,349.90461 C 244.79813,349.01279 245.3031,344.23313 245.67092,339.28313 C 246.44972,328.80246 248.32718,323.89498 247.96635,333.28313 C 247.60491,342.68705 248.05284,347.78313 249.24086,347.78313 C 251.12168,347.78313 255.47449,343.82113 258.37874,339.46569 C 260.71965,335.95509 261.06927,334.6114 260.55493,331.10195 C 260.17659,328.52045 260.51394,325.07712 261.43668,322.10195 C 264.46899,312.32489 265.64812,302.23438 265.50547,287.28313 C 265.33318,269.22734 263.86869,255.35669 261.7045,251.28313 C 260.61395,249.23044 260.30866,247.0613 260.73769,244.41378 C 261.09952,242.18093 260.97344,240.70064 260.43958,240.91378 C 257.12126,242.23859 240.03886,252.31375 237.69238,254.33001 C 234.87809,256.74826 232.14859,257.55626 232.14859,255.97112 C 232.14859,255.52451 228.88609,255.73404 224.89859,256.43674 C 214.77277,258.22116 208.9006,258.2289 199.64859,256.47 C 195.24859,255.63352 188.27359,254.41031 184.14859,253.75177 C 176.68972,252.56098 165.00102,249.16026 158.86314,246.39519 C 146.3571,240.76133 145.96562,240.65562 144.54372,242.52891 C 143.81138,243.49373 143.19789,246.3363 143.18039,248.84574 L 143.14859,253.40834 L 148.89859,253.38171 C 156.02314,253.3487 163.33475,256.17944 169.65734,261.41859 C 175.40421,266.18068 177.76949,270.62579 179.57341,280.05407 C 181.59549,290.62249 179.91069,296.73903 173.4014,302.46123 C 170.78735,304.75919 167.9361,306.83495 167.06527,307.07403 C 166.19444,307.3131 162.96751,306.02823 159.89431,304.21876 C 153.77177,300.61385 152.9893,300.9551 153.65167,306.94124 C 154.85055,317.77623 156.09085,325.01544 156.92971,326.07404 C 157.45666,326.73904 158.19945,329.01103 158.58035,331.1229 C 159.69093,337.28041 165.68695,342.85362 177.50243,348.71068 C 184.42923,352.14437 189.01342,353.7977 191.69185,353.82823 C 193.86806,353.85304 196.99859,354.52304 198.64859,355.31713 C 200.92137,356.41093 203.70905,356.60258 210.14859,356.10775 C 214.82359,355.74851 221.87015,355.35827 225.80761,355.24055 z M 236.88487,344.88266 C 236.16869,342.14398 237.14284,337.99931 238.63752,337.42575 C 239.34233,337.15529 240.8518,337.58737 241.9919,338.38593 C 244.19944,339.93216 244.00364,341.93359 241.3416,345.03313 C 239.37692,347.3207 237.50591,347.25753 236.88487,344.88266 z M 234.6591,332.80014 C 233.74484,331.32084 235.16922,325.0109 236.70516,323.73618 C 237.4462,323.12117 238.86163,322.78608 239.85055,322.99154 C 241.84621,323.40616 241.90787,326.36167 240.0183,331.03313 C 238.917,333.75581 235.87054,334.76028 234.6591,332.80014 z M 246.07716,320.9498 C 246.03788,320.30813 246.00573,317.75813 246.00573,315.28313 C 246.00573,306.89114 246.14716,305.66421 247.05017,306.2223 C 247.97435,306.79348 247.64271,320.62234 246.68179,321.58326 C 246.38853,321.87652 246.11645,321.59146 246.07716,320.9498 z M 233.85744,314.15865 C 232.80106,313.10227 233.00113,307.92718 234.18377,305.71739 C 235.19912,303.82019 238.61071,303.05488 239.46295,304.53313 C 239.70076,304.94563 239.61482,307.30813 239.27196,309.78313 C 238.785,313.2984 238.20193,314.34707 236.60744,314.57531 C 235.48481,314.73601 234.24731,314.54851 233.85744,314.15865 z M 246.66156,300.03313 C 244.83626,295.47645 243.86557,285.78649 243.60622,269.53313 C 243.33637,252.62083 243.41327,251.78313 245.2358,251.78313 C 246.8529,251.78313 247.17747,252.5947 247.33543,257.03313 C 247.56139,263.38253 247.7074,301.78188 247.50558,301.78261 C 247.42692,301.7829 247.04711,300.99563 246.66156,300.03313 z M 234.72002,294.2117 C 233.85573,293.34742 233.14859,291.77242 233.14859,290.7117 C 233.14859,288.28629 236.87348,284.46358 238.59363,285.12367 C 240.60855,285.89686 241.18948,290.99251 239.55235,293.53313 C 237.8385,296.1928 236.84117,296.33285 234.72002,294.2117 z M 234.34859,272.58313 C 231.51857,269.75311 234.02875,261.78313 237.75009,261.78313 C 240.7994,261.78313 241.10846,262.534 240.17046,267.66354 C 239.17935,273.08347 236.83227,275.06681 234.34859,272.58313 z M 257.31276,352.07339 L 259.64859,349.55202 L 255.67466,352.22484 C 250.67032,355.5907 250.50889,355.76318 252.96385,355.12119 C 254.07104,354.83165 256.02805,353.46014 257.31276,352.07339 z M 112.64859,305.29834 C 117.04859,304.50335 120.78765,303.83721 120.95761,303.81802 C 121.12757,303.79883 121.04145,303.4188 120.76624,302.9735 C 120.49103,302.5282 121.59654,299.52579 123.22292,296.30147 C 124.8493,293.07715 126.45821,288.69908 126.79827,286.57243 C 127.55506,281.83971 129.31923,282.1288 130.36388,287.15671 C 131.21308,291.24393 128.97694,296.95478 124.95091,300.98081 L 122.83621,303.09551 L 126.60324,302.4842 C 128.6751,302.14799 133.46744,300.65776 137.25288,299.17259 C 142.43494,297.13948 143.88271,296.16769 143.11236,295.23947 C 142.52982,294.53756 142.36747,292.26654 142.73536,289.96589 C 143.28989,286.49805 143.02238,285.56601 140.84868,283.39231 C 139.25684,281.80047 138.5023,280.14654 138.8177,278.94044 C 139.25397,277.27215 139.69393,277.1627 142.18461,278.10283 C 146.19818,279.61778 148.59048,284.45191 147.89451,289.64081 C 147.58892,291.91909 147.53901,293.78313 147.78358,293.78313 C 148.38942,293.78313 155.27085,290.03137 157.24381,288.6254 C 158.1406,287.98634 160.00139,287.78035 161.49381,288.15493 C 163.541,288.66874 164.14859,289.43481 164.14859,291.50218 C 164.14859,293.54051 164.42745,293.90427 165.312,293.01972 C 167.01033,291.32139 166.50708,285.48541 164.02989,278.15176 C 161.89315,271.82597 160.14859,269.16162 160.14859,272.22411 C 160.14859,274.40941 156.43486,274.18654 155.22651,271.92873 C 154.68067,270.90881 152.75234,269.35369 150.94133,268.47289 C 147.74885,266.92021 147.6326,266.93861 147.12344,269.07729 C 146.29859,272.54197 129.69267,280.08156 113.41268,284.383 C 112.5489,284.61123 112.35799,286.03175 112.77865,289.10081 C 113.72499,296.00505 108.96468,304.1416 105.303,301.87856 C 104.37115,301.30264 104.71893,299.81193 106.70994,295.84791 C 108.16457,292.95182 109.5575,289.29563 109.80534,287.72305 L 110.25596,284.86381 L 101.34355,284.87798 C 91.012197,284.89441 88.362831,284.37275 81.957964,281.06099 C 76.856121,278.42298 69.148594,270.74786 69.148594,268.30547 C 69.148594,266.38467 69.21714,266.38021 60.965701,268.8376 C 57.171515,269.96756 53.185499,270.61223 52.107888,270.27021 C 51.030276,269.92819 50.148594,269.91864 50.148594,270.24899 C 50.148594,271.16885 54.80586,280.03905 56.413235,282.18059 C 58.30841,284.70557 62.022978,283.7549 66.068313,279.70956 C 69.15631,276.62157 72.104039,276.14545 72.922195,278.60253 C 73.163829,279.3282 71.202873,281.99029 68.564515,284.51828 L 63.7675,289.11463 L 67.632081,292.4553 C 71.122553,295.47257 71.697625,295.66277 73.572628,294.42007 C 74.714409,293.66333 76.773594,291.12365 78.148594,288.77634 C 81.259564,283.4655 82.56144,283.23785 82.953179,287.93617 C 83.19509,290.83753 82.628892,292.30545 80.20152,295.07007 L 77.145278,298.55094 L 79.651213,300.19289 C 81.029477,301.09596 83.455562,302.09452 85.042512,302.41191 C 87.770438,302.9575 88.036759,302.69691 89.923385,297.63606 C 91.020916,294.69195 92.083077,291.47186 92.283745,290.48031 C 92.898417,287.44304 94.630353,288.09457 94.958474,291.4865 C 95.243434,294.4322 94.371047,298.83315 92.690541,302.92763 C 92.197302,304.12938 92.773864,304.8485 94.83209,305.59868 C 98.7974,307.04395 103.41839,306.96605 112.64859,305.29834 z M 175.14859,287.62013 C 175.14859,277.90574 170.67106,267.73867 165.07361,264.743 C 163.49861,263.90009 163.30237,264.02452 163.86404,265.50999 C 164.23279,266.48522 165.31751,268.63313 166.27455,270.28313 C 169.17409,275.28217 171.53751,289.19172 170.32155,294.1012 L 169.28578,298.28313 L 172.21719,294.8209 C 174.31893,292.33857 175.14859,290.30058 175.14859,287.62013 z M 161.14859,295.81451 C 161.14859,295.28178 160.47359,295.10492 159.64859,295.4215 C 158.82359,295.73809 158.14859,296.17396 158.14859,296.39012 C 158.14859,296.60627 158.82359,296.78313 159.64859,296.78313 C 160.47359,296.78313 161.14859,296.34725 161.14859,295.81451 z M 58.648594,264.53761 C 60.848594,263.73734 63.169856,263.26395 63.806953,263.48563 C 65.889091,264.21015 66.140629,262.11603 64.536836,257.40916 C 62.645256,251.85768 61.747544,251.16684 58.854618,253.03636 C 55.671594,255.09335 50.543708,255.88385 47.612496,254.76941 C 45.094405,253.81203 45.080857,253.8355 45.609557,258.23987 C 45.902322,260.67877 46.639294,263.76599 47.247272,265.10036 C 48.455385,267.75188 50.02545,267.67438 58.648594,264.53761 z M 344.19577,256.03313 C 344.22172,255.07063 345.52702,251.80813 347.09644,248.78313 C 349.92333,243.33441 349.96073,243.3067 351.10876,245.81142 C 352.06179,247.89071 351.90815,249.17825 350.24363,253.06142 L 348.21966,257.78313 L 352.10234,257.78313 C 356.7735,257.78313 359.35011,256.91822 358.54754,255.61963 C 358.22328,255.09496 359.16146,252.92905 360.6324,250.8065 C 362.84303,247.61655 363.11358,246.58624 362.19252,244.86522 C 361.57966,243.72007 360.47416,242.78313 359.73585,242.78313 C 358.99755,242.78313 357.87043,242.15289 357.23115,241.3826 C 356.23992,240.18825 355.22821,240.18301 350.3587,241.34698 C 347.21814,242.09768 341.93395,242.72792 338.61606,242.74751 L 332.58352,242.78313 L 332.35525,248.02949 C 332.2297,250.91499 331.88727,254.03113 331.59428,254.95424 C 331.00056,256.82491 332.83801,257.42071 339.89859,257.64695 C 343.31539,257.75643 344.15784,257.44005 344.19577,256.03313 z M 213.64859,255.78313 C 213.98851,255.23313 213.79007,254.78313 213.20761,254.78313 C 212.62515,254.78313 212.14859,255.23313 212.14859,255.78313 C 212.14859,256.33313 212.34703,256.78313 212.58957,256.78313 C 212.83211,256.78313 213.30867,256.33313 213.64859,255.78313 z M 328.2679,252.49717 C 331.2087,250.01137 332.43918,245.50688 330.75969,243.37527 C 330.14859,242.59965 327.73609,241.65957 325.39859,241.2862 C 321.19726,240.61511 321.14859,240.64147 321.14859,243.58824 C 321.14859,245.22774 320.57942,246.78756 319.88376,247.05451 C 318.96845,247.40575 318.71688,246.51283 318.97338,243.8232 C 319.31621,240.2283 319.16925,240.03834 314.48821,238.02565 C 311.82642,236.88118 308.34127,235.61711 306.74343,235.21661 C 304.03334,234.53732 303.88487,234.64941 304.53235,236.88578 C 304.91409,238.20432 305.48697,240.70975 305.80542,242.45341 C 306.29407,245.12907 307.10709,245.88622 311.0165,247.30639 C 313.56415,248.23188 316.65811,248.99054 317.89197,248.99231 C 319.12583,248.99408 319.91102,249.35852 319.63682,249.80217 C 319.19126,250.5231 323.90623,254.72613 325.14859,254.71549 C 325.42359,254.71313 326.82728,253.71489 328.2679,252.49717 z M 212.7199,252.89852 C 212.41921,252.41198 210.03015,251.70646 207.41089,251.3307 C 204.79162,250.95493 200.9584,249.78383 198.89261,248.72824 C 196.82682,247.67266 192.77682,246.36634 189.89261,245.82531 C 177.67998,243.53444 167.12376,240.95288 159.33517,238.35238 C 154.76278,236.82572 150.81291,235.78547 150.55767,236.04071 C 150.04489,236.5535 169.6012,245.02094 175.14859,246.68802 C 177.07359,247.26652 184.48231,248.68106 191.61242,249.83145 C 198.74252,250.98185 205.26752,252.32791 206.11242,252.8227 C 208.10527,253.98975 213.4321,254.05088 212.7199,252.89852 z M 372.14859,251.23772 C 372.14859,250.5126 370.91109,249.0417 369.39859,247.96905 L 366.64859,246.01877 L 366.51004,249.7114 C 366.37772,253.23812 366.50127,253.38498 369.26004,252.98008 C 370.84874,252.74691 372.14859,251.96285 372.14859,251.23772 z M 56.398594,249.39108 C 58.942074,247.46031 58.541928,246.68309 55.583494,247.80788 C 54.17269,248.34427 51.81019,248.79002 50.333494,248.79844 C 48.232662,248.81042 47.974901,249.02463 49.148594,249.78313 C 51.236199,251.13224 54.324929,250.96522 56.398594,249.39108 z M 276.89755,248.04733 C 284.75066,246.1361 285.87364,244.65425 282.07446,241.21605 C 280.75448,240.02148 280.15867,238.51074 280.43579,237.06106 C 280.92258,234.51459 280.19416,234.33608 275.18208,235.77353 C 271.26402,236.89721 266.81595,241.47391 267.61589,243.55851 C 267.90888,244.32202 268.14859,246.0349 268.14859,247.36492 C 268.14859,250.26842 267.86282,250.24613 276.89755,248.04733 z M 393.3139,247.22193 C 395.32983,246.87564 397.92338,245.5873 399.07737,244.35894 L 401.17552,242.12556 L 398.39767,242.53327 C 396.26387,242.84644 394.98556,242.22912 392.8842,239.87071 C 388.84409,235.33637 389.21622,232.78477 394.39859,229.48698 C 397.1942,227.708 398.04921,225.78313 396.04382,225.78313 C 395.43619,225.78313 392.69922,226.90813 389.96166,228.28313 C 383.43029,231.56365 381.14859,231.55099 381.14859,228.23424 C 381.14859,226.20482 382.01476,225.29218 385.39859,223.7562 C 387.73609,222.69517 390.40953,221.81717 391.33957,221.80509 C 392.26961,221.79301 393.32355,221.30905 393.68166,220.72963 C 394.30648,219.71864 371.96157,220.23024 366.43389,221.35348 C 363.60389,221.92855 364.45214,224.56784 367.88663,225.87363 C 369.48307,226.4806 370.15092,227.33467 369.78163,228.29703 C 369.46798,229.11438 369.55843,229.78313 369.98263,229.78313 C 371.75323,229.78313 379.00638,238.14722 381.69925,243.29434 C 384.25601,248.18128 384.90264,248.78342 387.12526,248.347 C 388.51309,248.07449 391.29798,247.56821 393.3139,247.22193 z M 375.19681,242.87766 C 372.56886,237.72644 368.6843,234.78313 364.51373,234.78313 C 360.31404,234.78313 360.18454,236.14117 364.22464,237.81463 C 365.91647,238.51541 369.39572,240.82 371.95631,242.93595 C 374.5169,245.0519 376.74182,246.78313 376.90058,246.78313 C 377.05934,246.78313 376.29265,245.02567 375.19681,242.87766 z M 300.98068,241.2629 C 301.56986,236.28731 299.52544,234.0539 293.78359,233.40047 C 290.95934,233.07907 287.07359,233.17269 285.14859,233.60852 C 281.8924,234.34574 281.79178,234.47912 283.70423,235.5232 C 284.83483,236.14044 286.63483,238.45409 287.70423,240.66465 C 289.35526,244.0775 290.1766,244.73095 293.14859,244.99613 C 298.4604,245.47007 300.60345,244.44857 300.98068,241.2629 z M 231.78106,243.99748 C 231.01338,242.75534 216.4396,242.50325 215.68816,243.7191 C 215.24281,244.4397 217.81214,244.78313 223.64859,244.78313 C 228.38851,244.78313 232.04812,244.42959 231.78106,243.99748 z M 60.374011,240.18228 C 62.725032,238.58775 65.548594,237.26518 66.648594,237.24324 C 68.202434,237.21225 68.587378,236.6179 68.374183,234.57896 C 68.159522,232.52601 69.625014,230.3096 75.104669,224.39979 C 82.568751,216.34976 82.566361,216.35891 78.856869,210.03313 C 75.629598,204.52968 73.148594,206.62678 73.148594,214.85813 C 73.148594,220.40543 73.078777,220.54709 70.045888,221.15367 C 68.3394,221.49497 66.5487,221.53041 66.066555,221.23243 C 65.58441,220.93444 64.311878,221.16056 63.238707,221.7349 C 59.912928,223.51481 57.923621,220.51198 58.72248,214.91773 C 59.376378,210.33862 59.361576,210.30708 57.486189,212.28313 C 52.24439,217.8063 49.936082,221.80028 50.556693,224.27299 C 50.903196,225.65357 51.566761,226.78313 52.031282,226.78313 C 52.495804,226.78313 54.095255,228.00252 55.585619,229.49288 C 58.091879,231.99914 58.165874,232.29733 56.570955,233.46356 C 54.676008,234.84918 51.36379,234.6889 50.316356,233.1609 C 49.949087,232.62513 48.186094,231.16531 46.398594,229.91686 C 44.611094,228.6684 43.148594,226.99364 43.148594,226.19516 C 43.148594,224.20679 47.571735,217.32599 52.803711,211.17532 C 55.193397,208.36602 57.148594,205.55352 57.148594,204.92532 C 57.148594,204.29711 55.852004,203.78313 54.267283,203.78313 C 52.149514,203.78313 50.678538,204.71062 48.716392,207.28313 C 47.248123,209.20813 45.394713,210.78313 44.597703,210.78313 C 43.800693,210.78313 43.148594,211.3102 43.148594,211.95439 C 43.148594,213.94359 39.949964,216.78313 37.709214,216.78313 C 35.061247,216.78313 32.148594,221.4472 32.148594,225.68742 C 32.148594,227.39006 32.492363,228.78313 32.912526,228.78313 C 33.332689,228.78313 34.795189,230.61853 36.162526,232.86179 C 37.529863,235.10505 39.45772,237.38246 40.446652,237.92269 C 41.610746,238.55862 42.035632,239.56368 41.651722,240.77328 C 41.187448,242.23607 41.6654,242.74403 43.853664,243.11345 C 50.097861,244.1676 56.056867,243.11031 60.374011,240.18228 z M 237.26875,237.73921 C 243.69789,235.38928 244.14859,235.3594 244.14859,237.28313 C 244.14859,238.10813 244.59859,238.78313 245.14859,238.78313 C 245.69859,238.78313 246.14859,237.91345 246.14859,236.85052 C 246.14859,235.78758 246.99952,234.64783 248.03955,234.31774 C 249.07957,233.98765 250.87957,231.5114 252.03955,228.81497 C 254.61211,222.83489 254.61041,223.10066 252.08467,221.74892 C 250.53932,220.92187 249.64452,220.95658 248.52335,221.88707 C 247.32979,222.87764 246.03235,222.87515 242.1292,221.8748 C 237.80478,220.76648 236.08795,220.87995 227.44052,222.84563 C 222.05496,224.06983 217.19859,225.41631 216.64859,225.83781 C 216.09859,226.2593 213.98128,226.91572 211.94346,227.29652 C 208.47657,227.94436 208.19025,227.80544 207.49057,225.136 C 207.07929,223.56692 206.86239,221.49563 207.00855,220.53313 C 207.3425,218.33407 207.79337,218.28862 197.95021,221.4462 C 191.06008,223.65647 188.05204,224.07478 180.25859,223.90646 C 175.0941,223.79491 170.06118,223.27153 169.07434,222.74339 C 166.79236,221.52211 162.4415,221.50018 161.69614,222.70619 C 161.38237,223.21388 159.78598,223.9235 158.14859,224.28313 C 153.44221,225.31682 153.73768,226.44871 159.3879,229.03084 C 176.37861,236.7955 200.14947,241.20963 212.53187,238.89942 C 217.3001,238.00979 218.91109,238.0718 221.03187,239.22659 C 224.21396,240.95927 229.87876,240.44035 237.26875,237.73921 z M 404.16438,237.25362 C 405.34238,235.05251 405.29941,234.50537 403.83336,233.03933 C 402.33341,231.53938 401.98352,231.51963 400.64381,232.85934 C 399.38834,234.1148 399.34692,234.81176 400.39381,237.06583 C 401.94922,240.41481 402.45898,240.4402 404.16438,237.25362 z M 67.94654,214.03313 C 68.518862,212.52063 69.216096,208.69414 69.495948,205.52983 C 69.929422,200.62849 69.728988,199.62893 68.142424,198.77983 C 65.869014,197.56314 64.115898,197.47623 66.006136,198.67392 C 67.119094,199.37912 67.147462,200.41232 66.16359,204.40861 C 63.988104,213.245 63.776136,216.78313 65.422238,216.78313 C 66.238282,216.78313 67.374217,215.54563 67.94654,214.03313 z M 228.87776,214.17896 C 228.54546,213.84667 227.68297,213.81115 226.96109,214.10002 C 226.16336,214.41924 226.40031,214.6562 227.56526,214.70418 C 228.61942,214.7476 229.21005,214.51126 228.87776,214.17896 z M 159.45267,56.857622 C 160.91805,56.300482 162.08586,54.891622 162.38668,53.317982 C 162.66153,51.880222 162.60579,50.834202 162.26281,50.993502 C 161.91984,51.152792 159.50383,52.131772 156.89391,53.168992 C 151.89663,55.154982 150.99588,56.335252 153.89859,57.093802 C 156.72815,57.833252 156.90653,57.825662 159.45267,56.857622 z M 170.5668,53.176142 C 172.43128,52.460672 172.7203,47.776132 170.89859,47.798442 C 168.36343,47.829502 166.92823,49.513472 167.60897,51.658282 C 168.36047,54.026062 168.35682,54.024192 170.5668,53.176142 z M 178.89859,49.794092 C 180.92252,48.560082 182.14859,47.011582 182.14859,45.689422 C 182.14859,43.875322 181.74834,43.665162 179.39859,44.245492 C 176.03654,45.075812 175.58044,45.546442 174.75865,49.033132 C 173.98767,52.304192 174.59779,52.416342 178.89859,49.794092 z M 188.55176,45.645292 C 189.92526,45.019482 191.49803,43.219482 192.0468,41.645292 C 193.21829,38.284742 193.24326,38.293482 188.68252,40.468342 C 186.14041,41.680592 185.14859,42.803222 185.14859,44.468342 C 185.14859,47.138062 185.22073,47.163012 188.55176,45.645292 z M 200.14859,38.747952 C 200.14859,36.968732 197.16709,35.766882 197.13494,37.533132 C 197.12743,37.945632 196.83659,39.346702 196.48863,40.646622 C 195.90988,42.808732 196.03884,42.912232 198.00228,41.861432 C 199.18275,41.229662 200.14859,39.828602 200.14859,38.747952 z M 178.06526,38.147682 C 179.43758,36.947022 176.18272,38.062042 174.58972,39.338302 C 172.75941,40.804672 172.79132,40.825492 175.14859,39.702842 C 176.52359,39.048002 177.83609,38.348182 178.06526,38.147682 z M 209.13552,37.981882 C 211.05332,37.044032 212.78247,35.445742 212.97806,34.430132 C 213.28692,32.826312 212.89427,32.676262 209.99113,33.288702 C 206.10381,34.108762 205.60822,34.505832 204.6936,37.533132 C 203.89054,40.191142 204.4933,40.252032 209.13552,37.981882 z M 182.14859,36.783132 C 182.97359,36.249972 183.19859,35.813762 182.64859,35.813762 C 182.09859,35.813762 180.97359,36.249972 180.14859,36.783132 C 179.32359,37.316292 179.09859,37.752502 179.64859,37.752502 C 180.19859,37.752502 181.32359,37.316292 182.14859,36.783132 z M 230.53985,31.923672 C 237.38195,30.088952 238.31742,28.098032 231.75931,29.328342 C 229.06327,29.834122 227.89121,29.525752 226.2423,27.876842 C 223.653,25.287542 223.14859,25.261282 223.14859,27.715742 C 223.14859,28.845222 222.21355,29.940162 220.89859,30.350522 C 218.63551,31.056772 217.1923,32.530422 217.1639,34.163972 C 217.1465,35.165172 220.62287,34.582922 230.53985,31.923672 z M 108.18375,175.78313 C 108.26068,167.80813 108.26381,158.58313 108.19071,155.28313 L 108.0578,149.28313 L 102.89966,146.78313 C 100.06269,145.40813 96.87106,143.0802 95.807164,141.60994 C 93.894436,138.96667 93.894501,138.89492 95.813034,135.198 C 97.65624,131.64622 98.02569,131.44543 103.20093,131.1828 C 107.57702,130.96073 109.83266,131.48903 114.66816,133.86858 C 117.97892,135.4978 123.10939,137.21361 126.06922,137.6815 C 129.91094,138.28879 131.97337,139.21188 133.27741,140.90766 C 135.64531,143.9869 135.61423,144.24801 132.64859,146.19117 C 131.27359,147.09211 130.14859,148.64603 130.14859,149.64433 C 130.14859,151.08135 128.95191,151.64935 124.40342,152.37127 L 118.65826,153.28313 L 116.94101,162.28313 C 115.99652,167.23313 115.20684,173.42063 115.18617,176.03313 C 115.1655,178.64563 114.69859,180.78313 114.14859,180.78313 C 113.59859,180.78313 113.14859,182.92063 113.14859,185.53313 C 113.14859,189.95911 112.97448,190.28313 110.59624,190.28313 L 108.04388,190.28313 L 108.18375,175.78313 z M 124.94592,144.49901 C 126.00904,143.64732 126.00904,143.30799 124.94592,142.61951 C 123.21945,141.50144 110.05624,137.54214 109.59593,138.00246 C 109.39733,138.20105 111.57794,140.23218 114.44172,142.51607 C 119.63524,146.65795 121.75224,147.05759 124.94592,144.49901 z M 183.25474,189.41103 C 182.43783,188.42672 182.25756,180.58388 182.61688,161.66103 C 183.17565,132.23428 183.08801,134.18841 184.33228,123.41297 C 185.12184,116.57536 185.01714,115.29536 183.53429,113.65684 C 181.52891,111.44091 182.40417,109.92043 184.62442,111.76307 C 185.95884,112.87054 186.14859,112.33718 186.14859,107.47897 L 186.14859,101.92991 L 180.39859,98.606522 C 177.23609,96.778662 173.74859,94.749522 172.64859,94.097332 C 171.54859,93.445142 168.28609,91.724962 165.39859,90.274712 C 161.63759,88.385742 160.14859,87.058172 160.14859,85.593882 C 160.14859,83.933922 160.57135,83.681082 162.39859,84.248192 C 163.63609,84.632272 167.87717,85.555662 171.8232,86.300162 C 181.30863,88.089792 190.83639,92.878682 189.41552,95.142512 C 189.02178,95.769852 188.64631,98.758132 188.58114,101.78313 C 188.51598,104.80813 188.12621,110.88313 187.71498,115.28313 C 186.44315,128.89152 186.30488,149.54643 187.37109,166.65626 C 188.12774,178.79863 188.09125,184.03115 187.22985,186.90626 C 185.99202,191.03775 185.08114,191.61171 183.25474,189.41103 z M 184.64859,94.783132 C 184.30867,94.233132 183.49461,93.790022 182.83957,93.798442 C 182.12396,93.807642 182.2473,94.200672 183.14859,94.783132 C 185.06971,96.024662 185.41589,96.024662 184.64859,94.783132 z M 223.87943,185.37112 C 221.45912,182.9508 220.71147,177.23539 221.94648,170.59448 C 223.89614,160.11073 228.16344,156.64268 245.64859,151.33173 C 250.59859,149.82822 258.69859,147.24986 263.64859,145.60206 C 276.19559,141.42528 281.65637,140.98121 286.99287,143.70369 C 293.09298,146.81573 295.14139,150.73287 295.13988,159.28313 C 295.13791,170.5174 294.51416,170.9781 272.14859,176.26422 C 261.97359,178.66909 249.59859,181.83226 244.64859,183.2935 C 232.50349,186.87874 226.0342,187.52588 223.87943,185.37112 z M 239.45606,178.25824 C 240.50165,177.8341 241.02855,176.91268 240.70606,176.0723 C 240.39945,175.27329 240.14859,173.75636 240.14859,172.70134 C 240.14859,171.23666 239.43929,170.78313 237.14859,170.78313 C 234.80465,170.78313 234.14859,170.34107 234.14859,168.76169 C 234.14859,167.57591 235.18208,166.26936 236.64859,165.60118 C 239.02097,164.52025 240.22094,160.78313 238.19564,160.78313 C 233.31721,160.78313 229.25127,166.38811 228.44206,174.22866 C 227.91718,179.3142 228.01743,179.63038 230.26764,179.98625 C 232.58345,180.35249 235.77116,179.753 239.45606,178.25824 z M 254.24932,172.63455 C 254.02973,171.89127 253.6339,169.99622 253.36971,168.42332 C 252.92358,165.76727 252.63756,165.60437 249.35528,166.13701 C 244.43711,166.93512 243.82239,167.85799 245.08518,172.54765 L 246.16737,176.56658 L 250.40798,175.27627 C 253.12776,174.44872 254.5054,173.5013 254.24932,172.63455 z M 266.89253,170.37252 C 267.16541,170.09965 267.08926,168.2804 266.72332,166.32976 C 266.18325,163.45094 265.61116,162.78313 263.68506,162.78313 C 259.44932,162.78313 258.14859,163.82633 258.14859,167.22345 C 258.14859,168.99794 258.48609,170.78936 258.89859,171.20438 C 259.65046,171.96086 265.96087,171.30419 266.89253,170.37252 z M 282.02734,166.63411 C 287.82509,165.23778 289.05608,164.09798 289.45885,159.75312 C 289.98912,154.03282 288.33163,150.7673 283.88811,148.77787 C 280.05799,147.06308 279.74114,147.06334 275.89711,148.78436 C 271.84697,150.59766 270.19178,152.25734 270.1639,154.53313 C 270.14328,156.21657 273.01612,156.10066 276.5129,154.27697 C 279.58917,152.67258 284.71739,152.27642 285.52359,153.58088 C 286.52733,155.20496 284.47778,156.48635 277.89859,158.34809 C 271.93747,160.03492 271.14859,160.54259 271.14859,162.6919 C 271.14859,165.70084 274.02095,169.04609 275.96425,168.30037 C 276.75726,167.99607 279.48566,167.24625 282.02734,166.63411 z M 246.94768,159.99017 C 246.42057,157.27384 244.14859,157.41851 244.14859,160.16841 C 244.14859,162.06191 244.54828,162.56698 245.69768,162.12592 C 246.54968,161.79897 247.11218,160.83789 246.94768,159.99017 z M 265.39097,157.13333 C 266.65705,156.35085 266.23636,151.78287 264.89859,151.78687 C 262.6054,151.79373 257.14859,155.73168 257.14859,157.37972 C 257.14859,158.71646 257.81434,158.88082 260.89097,158.30364 C 262.94929,157.91749 264.97429,157.39086 265.39097,157.13333 z M 295.14859,173.39976 C 295.14859,173.18891 296.04859,172.78104 297.14859,172.49338 C 298.24859,172.20572 299.14859,172.37824 299.14859,172.87675 C 299.14859,173.37526 298.24859,173.78313 297.14859,173.78313 C 296.04859,173.78313 295.14859,173.61061 295.14859,173.39976 z M 225.49207,137.32999 C 220.9575,135.35944 216.71851,127.82083 217.48591,123.09187 C 218.39319,117.50101 222.83059,113.3962 229.17557,112.27838 C 234.82798,111.28256 237.62711,112.47355 239.47431,116.66033 C 240.39516,118.74749 241.14859,121.23354 241.14859,122.18489 C 241.14859,123.13624 241.60892,124.77475 242.17155,125.82603 C 243.51778,128.34149 241.27495,133.81871 238.03502,135.92786 C 234.39931,138.29467 229.08023,138.88927 225.49207,137.32999 z M 267.36538,126.22243 C 263.05443,123.20292 261.07463,116.38257 262.72538,110.23772 C 263.68214,106.67618 271.47848,102.78313 277.65416,102.78313 C 282.25495,102.78313 283.26136,103.12464 284.28479,105.03313 C 287.92952,111.82981 283.15831,124.85296 276.32856,126.74989 C 271.3543,128.13146 269.97503,128.05029 267.36538,126.22243 z M 181.35484,108.09887 C 180.6914,106.89753 180.16661,104.87253 180.18863,103.59887 C 180.22694,101.3831 180.29438,101.40434 181.75083,104.09089 C 182.58802,105.63516 183.11282,107.66016 182.91705,108.59089 C 182.61539,110.02504 182.37713,109.95 181.35484,108.09887 z M 200.70257,104.9532 C 200.36391,103.88618 200.51534,101.10601 201.03908,98.775032 C 201.56281,96.444042 201.78571,94.001052 201.5344,93.346162 C 200.83757,91.530252 209.72306,83.980002 213.92855,82.814502 C 218.23463,81.621122 236.33322,76.319182 243.64859,74.108082 C 246.39859,73.276882 250.79285,71.288732 253.41361,69.689972 C 258.85856,66.368352 260.43195,66.073562 259.97191,68.461212 C 259.79409,69.384162 258.35228,70.485972 256.76789,70.909692 C 255.18351,71.333402 252.93351,72.576012 251.76789,73.671052 C 250.60228,74.766092 249.31688,75.702792 248.91146,75.752602 C 248.50604,75.802422 246.25604,76.660102 243.91146,77.658562 C 241.56688,78.657022 235.37359,80.916192 230.14859,82.678932 C 224.92359,84.441672 219.07359,86.729092 217.14859,87.762082 C 215.22359,88.795082 212.2126,90.313362 210.4575,91.136052 C 207.95722,92.308032 207.03657,93.568272 206.20467,96.957492 C 204.41115,104.26449 203.69406,106.10461 202.48345,106.50646 C 201.84262,106.71918 201.04122,106.02021 200.70257,104.9532 z M 218.14859,95.479152 C 218.14859,94.796482 219.83609,93.373652 221.89859,92.317302 C 223.96109,91.260952 226.99859,89.425322 228.64859,88.238112 C 233.89018,84.466692 237.52029,82.989902 247.04719,80.753252 C 253.35251,79.272942 256.66479,78.899332 257.35595,79.590502 C 258.8749,81.109442 257.52676,82.547372 253.88712,83.290402 C 246.18459,84.862862 236.32623,88.215842 229.25808,91.667132 C 219.06437,96.644592 218.14859,96.958822 218.14859,95.479152 z M 182.14859,76.807842 C 180.77359,75.745892 177.96109,74.112552 175.89859,73.178202 C 172.04294,71.431522 171.0123,68.809952 173.39859,66.819152 C 183.75652,58.177852 204.42509,47.783132 211.24928,47.783132 C 212.36622,47.783132 214.07766,47.356272 215.05249,46.834562 C 216.02732,46.312852 221.28524,44.918962 226.73675,43.737032 C 239.81229,40.902152 252.87043,36.823222 254.27032,35.136452 C 254.88806,34.392122 256.27089,33.783132 257.34327,33.783132 C 261.18364,33.783132 281.63299,38.948182 282.36794,40.103812 C 283.65856,42.133152 283.21775,44.783132 281.58957,44.783132 C 280.73211,44.783132 280.25404,45.144742 280.5272,45.586712 C 280.80035,46.028682 279.48619,46.433882 277.60685,46.487152 C 273.95707,46.590602 263.40407,49.536482 261.50385,50.982302 C 260.87424,51.461352 259.97424,51.766072 259.50385,51.659462 C 259.03346,51.552842 257.97359,51.747712 257.14859,52.092492 C 252.48152,54.042952 240.41846,58.303842 232.14859,60.922932 C 197.82453,71.793472 190.50143,74.582412 188.8489,77.413242 C 187.73387,79.323322 185.09713,79.085082 182.14859,76.807842 z M 198.14859,66.660492 C 200.31055,65.883302 200.64859,65.154752 200.64859,61.272462 C 200.64859,58.803332 200.30478,56.783132 199.88457,56.783132 C 197.83618,56.783132 192.07943,61.601212 191.2221,64.033132 C 190.22587,66.859042 188.60647,67.656762 187.93786,65.650952 C 187.67762,64.870212 186.56533,65.033392 184.35453,66.176632 C 180.56569,68.135922 180.34932,69.114402 183.39859,70.499662 C 185.11172,71.277932 186.84163,71.049072 190.64859,69.540512 C 193.39859,68.450782 196.77359,67.154772 198.14859,66.660492 z M 209.44683,63.717232 C 212.55869,62.853092 213.13392,62.312282 212.63,60.724552 C 212.29171,59.658692 211.97652,57.435842 211.92958,55.784882 C 211.76866,50.125212 207.63106,52.477932 205.0986,59.669102 C 203.11617,65.298432 203.26243,65.434602 209.44683,63.717232 z M 229.31312,57.807122 C 238.96154,55.043542 243.78371,53.386112 249.64859,50.817582 C 252.22835,49.687772 268.74306,45.909152 272.64859,45.555092 L 275.64859,45.283132 L 272.89834,43.417962 C 269.99998,41.452342 259.16649,40.059852 254.96887,41.113392 C 253.56031,41.466922 252.15689,42.922812 251.46969,44.743392 C 250.0874,48.405502 248.14859,48.738912 248.14859,45.314522 C 248.14859,43.782692 247.67424,43.005002 246.89859,43.265142 C 246.21109,43.495732 243.73609,44.173952 241.39859,44.772302 C 237.71766,45.714552 237.14654,46.223282 237.13328,48.571672 C 237.12177,50.609502 236.88972,50.922332 236.19926,49.830882 C 235.69397,49.032142 235.50242,48.019642 235.77359,47.580882 C 236.43163,46.516142 234.4108,46.582662 230.14859,47.766032 C 226.99985,48.640252 226.64859,49.089252 226.64859,52.239832 C 226.64859,54.165952 226.19859,55.638662 225.64859,55.512502 C 225.09859,55.386352 224.65295,54.045532 224.65827,52.532902 C 224.66742,49.933632 224.47531,49.817412 221.15827,50.415562 C 219.22795,50.763652 217.57579,51.101252 217.4868,51.165792 C 217.39782,51.230332 216.89466,53.657122 216.36868,56.558662 C 215.52414,61.217482 215.6015,61.777352 217.03046,61.347962 C 217.92043,61.080542 223.44763,59.487162 229.31312,57.807122 z M 308.34503,73.519832 C 307.40348,72.385322 306.5409,69.319632 304.6559,60.408222 C 304.09004,57.733092 303.78486,57.568582 300.26408,58.040812 C 298.18305,58.319942 295.73073,58.128792 294.81449,57.616032 C 293.72588,57.006822 293.14859,57.047512 293.14859,57.733442 C 293.14859,58.310772 292.47359,58.783132 291.64859,58.783132 C 290.82359,58.783132 290.1602,57.995632 290.17439,57.033132 C 290.20911,54.677762 296.72796,51.783132 301.99764,51.783132 C 306.93473,51.783132 307.59609,52.811642 309.071,62.783132 C 309.59979,66.358132 310.33603,70.520632 310.70709,72.033132 C 311.41883,74.934302 310.17084,75.719802 308.34503,73.519832 z"
     id="path2451"
     inkscape:export-filename="/Users/nikolajbaer/Desktop/toasterbot-ff00ff.png"
     inkscape:export-xdpi="46.139999"
     inkscape:export-ydpi="46.139999" />
</svg>
